<?xml version="1.0" standalone="no"?>
<!DOCTYPE svg PUBLIC "-//W3C//DTD SVG 20010904//EN"
 "http://www.w3.org/TR/2001/REC-SVG-20010904/DTD/svg10.dtd">
<svg version="1.0" xmlns="http://www.w3.org/2000/svg"
 width="1024.000000pt" height="61.000000pt" viewBox="0 0 1024.000000 61.000000"
 preserveAspectRatio="xMidYMid meet">

<g transform="translate(0.000000,61.000000) scale(0.100,-0.100)"
fill="#000000" stroke="none">
<path d="M105 366 c-17 -40 -20 -126 -5 -126 9 0 11 7 14 51 1 9 7 23 14 32
17 21 20 69 4 74 -7 3 -19 -10 -27 -31z m14 -30 c-9 -8 -10 -7 -5 7 3 10 7 24
7 30 1 7 3 4 6 -7 3 -10 -1 -23 -8 -30z"/>
<path d="M472 373 c-19 -49 -24 -91 -13 -111 9 -17 20 -19 82 -18 47 1 74 6
77 14 2 7 12 12 23 12 10 0 19 5 19 10 0 6 -4 10 -10 10 -5 0 -10 7 -10 16 0
24 -23 11 -31 -17 -7 -24 -7 -24 -8 4 -1 33 -21 36 -21 3 0 -14 -5 -28 -12
-32 -8 -5 -9 2 -5 24 8 38 -10 44 -19 7 -3 -14 -10 -25 -14 -25 -4 0 -5 11 -2
25 2 14 0 25 -6 25 -5 0 -12 -13 -15 -30 -4 -16 -11 -30 -17 -30 -14 0 -12 20
5 50 19 33 20 90 1 90 -7 0 -18 -12 -24 -27z m23 -20 c-8 -35 -26 -55 -19 -22
9 39 13 49 20 49 3 0 3 -12 -1 -27z"/>
<path d="M127 313 c-3 -5 -2 -22 0 -39 l5 -32 65 1 c58 1 66 3 74 24 11 29 16
29 15 1 -1 -21 4 -23 49 -24 50 0 75 9 75 28 0 6 -6 5 -14 -1 -12 -10 -15 -7
-18 16 -4 41 -36 43 -51 4 -15 -40 -28 -40 -20 -1 6 31 -4 39 -25 18 -9 -9
-12 -9 -12 0 0 24 -19 11 -25 -18 -8 -38 -24 -39 -22 -2 3 39 -33 37 -53 -3
l-15 -30 -3 33 c-3 30 -15 42 -25 25z m83 -20 c0 -5 -5 -15 -10 -23 -8 -12
-10 -11 -10 8 0 12 5 22 10 22 6 0 10 -3 10 -7z m141 -26 c-8 -8 -11 -7 -11 4
0 20 13 34 18 19 3 -7 -1 -17 -7 -23z"/>
<path d="M390 230 c0 -5 11 -10 25 -10 14 0 25 5 25 10 0 6 -11 10 -25 10 -14
0 -25 -4 -25 -10z"/>
</g>
</svg>
